<?xml version="1.0" encoding="UTF-8" standalone="no"?>
<svg
   width="500"
   height="400"
   viewBox="0 0 500 400"
   fill="none"
   version="1.1"
   id="svg2535"
   sodipodi:docname="bxs-envelope.svg.svg"
   inkscape:version="1.2.2 (732a01da63, 2022-12-09, custom)"
   xmlns:inkscape="http://www.inkscape.org/namespaces/inkscape"
   xmlns:sodipodi="http://sodipodi.sourceforge.net/DTD/sodipodi-0.dtd"
   xmlns="http://www.w3.org/2000/svg"
   xmlns:svg="http://www.w3.org/2000/svg">
  <defs
     id="defs2539" />
  <sodipodi:namedview
     id="namedview2537"
     pagecolor="#ffffff"
     bordercolor="#000000"
     borderopacity="0.25"
     inkscape:showpageshadow="2"
     inkscape:pageopacity="0.0"
     inkscape:pagecheckerboard="0"
     inkscape:deskcolor="#d1d1d1"
     showgrid="false"
     inkscape:zoom="1.6390735"
     inkscape:cx="251.66656"
     inkscape:cy="206.82416"
     inkscape:window-width="1920"
     inkscape:window-height="1047"
     inkscape:window-x="1366"
     inkscape:window-y="0"
     inkscape:window-maximized="1"
     inkscape:current-layer="svg2535" />
  <path
     d="M 450,0 H 50 C 36.73925,0 24.0215,5.26775 14.64475,14.64475 5.26775,24.0215 0,36.73925 0,50 v 300 c 0,13.26 5.26775,25.9775 14.64475,35.355 C 24.0215,394.7325 36.73925,400 50,400 h 400 c 13.26,0 25.9775,-5.2675 35.355,-14.645 C 494.7325,375.9775 500,363.26 500,350 V 50 C 500,36.73925 494.7325,24.0215 485.355,14.64475 475.9775,5.26775 463.26,0 450,0 Z M 450,117.5 250,250.85 50,117.5 V 57.425 L 250,190.75 450,57.425 Z"
     fill="#ff3f8f"
     id="path2533"
     style="stroke-width:25" />
  <path
     style="fill:#ffffff;stroke:#ffffff;stroke-width:0.610101;stop-color:#000000"
     d="M 149.95002,183.75134 50.063766,117.13935 50.046014,87.701984 c -0.0098,-16.190549 0.120157,-29.437361 0.288712,-29.437361 0.168555,0 45.159423,29.90282 99.979714,66.450707 l 99.67324,66.45072 98.15051,-65.42797 c 53.98278,-35.985391 98.90552,-65.919787 99.82829,-66.520886 l 1.67778,-1.092907 v 29.529637 29.529636 l -99.72088,66.6314 c -54.84649,36.64727 -99.80329,66.61272 -99.904,66.58988 -0.10072,-0.0228 -45.13193,-30.0169 -100.06936,-66.6535 z"
     id="path3552" />
</svg>
