<?xml version="1.0" encoding="UTF-8" standalone="no"?>
<svg
   viewBox="0 0 500 500"
   version="1.1"
   id="svg12703"
   sodipodi:docname="facebook.svg"
   width="500"
   height="500"
   inkscape:version="1.2.2 (732a01da63, 2022-12-09, custom)"
   xmlns:inkscape="http://www.inkscape.org/namespaces/inkscape"
   xmlns:sodipodi="http://sodipodi.sourceforge.net/DTD/sodipodi-0.dtd"
   xmlns="http://www.w3.org/2000/svg"
   xmlns:svg="http://www.w3.org/2000/svg">
  <defs
     id="defs12707" />
  <sodipodi:namedview
     id="namedview12705"
     pagecolor="#ffffff"
     bordercolor="#000000"
     borderopacity="0.25"
     inkscape:showpageshadow="2"
     inkscape:pageopacity="0.0"
     inkscape:pagecheckerboard="0"
     inkscape:deskcolor="#d1d1d1"
     showgrid="false"
     inkscape:zoom="0.97460938"
     inkscape:cx="139.54309"
     inkscape:cy="323.71944"
     inkscape:window-width="1366"
     inkscape:window-height="708"
     inkscape:window-x="0"
     inkscape:window-y="27"
     inkscape:window-maximized="1"
     inkscape:current-layer="svg12703" />
  <!--! Font Awesome Pro 6.4.2 by @fontawesome - https://fontawesome.com License - https://fontawesome.com/license (Commercial License) Copyright 2023 Fonticons, Inc. -->
  <path
     d="M 446.42857,0 H 53.571429 A 53.571429,53.571429 0 0 0 0,53.571429 V 446.42857 A 53.571429,53.571429 0 0 0 53.571429,500 H 206.75223 V 330.01116 h -70.3125 V 250 h 70.3125 v -60.98214 c 0,-69.36384 41.29464,-107.67857 104.54241,-107.67857 30.29018,0 61.96429,5.40178 61.96429,5.40178 v 68.08036 h -34.89956 c -34.38616,0 -45.1116,21.33928 -45.1116,43.22545 V 250 h 76.76339 l -12.27679,80.01116 h -64.4866 V 500 h 153.1808 A 53.571429,53.571429 0 0 0 500,446.42857 V 53.571429 A 53.571429,53.571429 0 0 0 446.42857,0 Z"
     id="path12701"
     style="stroke-width:1.11607" />
  <path
     style="fill:#ff3f8f;fill-opacity:1;stroke-width:2.28661;stop-color:#000000"
     d="m 204.06174,499.69077 95.29615,-0.0909 v 0"
     id="path13800" />
  <g
     id="g13806">
    <path
       style="fill:#ff3f8f;fill-opacity:1;stroke-width:2.34619;stop-color:#000000"
       d="M 40.69456,497.60201 C 20.779229,492.38539 5.2927552,475.9501 1.569799,456.08016 0.73377152,451.61817 0.50021856,393.87019 0.72118288,246.25251 L 1.0260521,42.581162 3.3641875,36.42485 C 9.6939925,19.758467 22.665234,7.7168001 40.016032,2.3996333 45.903961,0.59527223 55.028984,0.51302605 249.33066,0.51302605 c 169.87317,0 204.0829,0.23325879 208.8016,1.42371165 19.44199,4.9049029 34.53286,19.6761353 39.47101,38.6349573 1.38524,5.318297 1.57108,30.154521 1.57108,209.961495 v 203.92972 l -2.4065,7.57812 c -5.91678,18.63207 -22.21714,33.11345 -41.13265,36.54262 -3.99563,0.72436 -32.82621,1.10372 -83.87976,1.10372 h -77.79151 v -84.64929 -84.6493 h 32.1305 32.13049 l 5.89836,-38.73347 c 3.2441,-21.30341 6.13111,-39.54148 6.41559,-40.52906 0.4861,-1.68744 -1.8084,-1.79559 -38.09483,-1.79559 h -38.61207 l 0.33525,-32.06413 c 0.30108,-28.79633 0.53486,-32.53468 2.29387,-36.68136 4.9484,-11.66533 12.69264,-18.934 24.18019,-22.69529 5.75235,-1.88345 9.87883,-2.25477 30.01203,-2.70059 l 23.34268,-0.51689 V 120.54458 86.416757 l -3.33467,-0.603705 c -21.47377,-3.887587 -61.0197,-5.819329 -77.26658,-3.774322 -39.91954,5.024695 -67.96575,26.89718 -80.10601,62.47252 -5.90495,17.30362 -6.53923,23.75169 -6.53923,66.47686 v 38.34255 h -35.3988 -35.3988 v 40.52906 40.52906 h 35.3988 35.3988 v 84.6493 84.64929 l -79.26253,-0.0565 c -74.795434,-0.0534 -79.686891,-0.16766 -86.79241,-2.02888 z"
       id="path13435" />
    <path
       style="fill:#ff3f8f;fill-opacity:1;stroke:#ff3f8f;stroke-width:1;stroke-dasharray:none;stroke-opacity:1;stop-color:#000000"
       d="m 202.93743,499.5 c 106.11405,-0.21145 106.11405,-0.21145 106.11405,-0.21145"
       id="path13802" />
  </g>
  <path
     style="fill:#ffffff;fill-opacity:1;stroke:#ffffff;stroke-width:0.362764;stroke-dasharray:none;stroke-opacity:1;stop-color:#000000"
     d="M 206.77559,414.27672 V 329.75266 H 171.76885 136.7621 v -20.85894 -20.85895 h 113.5452 c 92.85518,0 113.54519,0.0858 113.54519,0.47105 0,0.25907 -1.38757,9.47703 -3.08349,20.48436 -1.69593,11.00733 -3.0835,20.18189 -3.0835,20.3879 0,0.25478 -10.32523,0.37458 -32.28601,0.37458 h -32.28602 v 84.52406 84.52405 h -43.16894 -43.16894 z"
     id="path13946" />
  <path
     style="fill:#ffffff;fill-opacity:1;stroke:#ffffff;stroke-width:0.362764;stroke-dasharray:none;stroke-opacity:1;stop-color:#000000"
     d="m 244.231,287.76679 -107.4689,-0.096 V 268.98905 250.3073 h 34.94984 34.94985 l 0.22879,-35.09744 c 0.2576,-39.51661 0.45911,-43.47762 2.81905,-55.41223 0.82189,-4.15646 2.9722,-12.15398 4.02299,-14.96246 l 0.71315,-1.90608 h 79.23791 79.23792 v 5.77201 5.772 l -21.13102,0.16862 c -19.58301,0.15627 -21.43259,0.22503 -25.24762,0.93858 -18.00077,3.36678 -28.43236,13.27971 -32.40314,30.79203 -0.78566,3.46499 -0.80404,4.13059 -0.93128,33.73485 l -0.12981,30.20012 h 38.28899 c 36.23279,0 38.28774,0.0341 38.26558,0.63483 -0.0129,0.34917 -1.28114,8.79704 -2.81836,18.77305 l -2.79496,18.13821 -6.16004,0.005 c -3.38803,0.003 -54.52105,-0.0385 -113.62894,-0.0913 z"
     id="path13989" />
  <path
     style="fill:#ffffff;fill-opacity:1;stroke:#ffffff;stroke-width:1.02605;stroke-dasharray:none;stroke-opacity:1;stop-color:#000000"
     d="m 207.26252,414.01202 v -84.6493 h -35.39879 -35.3988 v -39.503 -39.50301 h 35.3988 35.39879 l 0.006,-36.16833 c 0.008,-47.75351 1.55936,-58.69291 11.24065,-79.26253 13.30253,-28.26356 37.73902,-45.835884 71.45162,-51.381001 15.80933,-2.600352 60.15405,-0.792302 79.67442,3.248532 l 2.82164,0.584098 v 33.115701 33.1157 l -22.31663,0.62065 c -12.27415,0.34135 -24.34145,1.11757 -26.81622,1.72491 -12.21809,2.99851 -21.73712,10.6644 -26.43607,21.28955 -3.50167,7.91792 -4.44625,18.0346 -4.45535,47.71793 l -0.008,25.39479 h 38.47695 c 21.16233,0 38.46083,0.34629 38.44111,0.76954 -0.0197,0.42325 -2.70221,18.08417 -5.96108,39.24649 l -5.92523,38.47696 -32.51587,0.27093 -32.51588,0.27092 v 84.63489 84.63488 h -42.58116 -42.58117 z"
     id="path14161" />
  <path
     style="fill:#ffffff;fill-opacity:1;stroke:#ffffff;stroke-width:1.02605;stroke-dasharray:none;stroke-opacity:1;stop-color:#000000"
     d="m 207.26252,414.01202 v -84.6493 h -35.39879 -35.3988 v -39.503 -39.50301 h 35.3988 35.39879 l 0.003,-35.65531 c 0.004,-49.31756 1.58316,-60.18468 11.74167,-80.8016 9.49768,-19.27575 21.45789,-31.40041 40.07108,-40.622007 15.10113,-7.481608 26.98492,-10.225454 47.25872,-10.911553 19.17693,-0.64898 50.28847,1.492477 63.81142,4.392242 l 2.30862,0.495043 v 33.215905 33.2159 l -19.23847,0.62206 c -10.58117,0.34213 -22.3872,1.04629 -26.23563,1.5648 -16.84745,2.26988 -28.9217,13.34837 -32.39713,29.72533 -0.64491,3.03895 -1.46728,18.85297 -1.8275,35.14228 l -0.65494,29.61691 h 38.77201 38.772 l -0.51922,3.33467 c -0.28558,1.83407 -3.00001,19.60409 -6.03208,39.48894 l -5.51283,36.15427 -32.32262,0.27058 -32.32263,0.27058 -0.26247,84.39278 -0.26247,84.39279 h -42.57521 -42.5752 z"
     id="path14163" />
</svg>
