<?xml version="1.0" encoding="UTF-8" standalone="no"?>
<svg
   viewBox="0 0 500 500"
   version="1.1"
   id="svg5722"
   sodipodi:docname="square-instagram.svg"
   width="500"
   height="500"
   inkscape:version="1.2.2 (732a01da63, 2022-12-09, custom)"
   xmlns:inkscape="http://www.inkscape.org/namespaces/inkscape"
   xmlns:sodipodi="http://sodipodi.sourceforge.net/DTD/sodipodi-0.dtd"
   xmlns="http://www.w3.org/2000/svg"
   xmlns:svg="http://www.w3.org/2000/svg">
  <defs
     id="defs5726" />
  <sodipodi:namedview
     id="namedview5724"
     pagecolor="#ffffff"
     bordercolor="#000000"
     borderopacity="0.25"
     inkscape:showpageshadow="2"
     inkscape:pageopacity="0.0"
     inkscape:pagecheckerboard="0"
     inkscape:deskcolor="#d1d1d1"
     showgrid="false"
     inkscape:zoom="0.97460938"
     inkscape:cx="224.19238"
     inkscape:cy="256"
     inkscape:window-width="1366"
     inkscape:window-height="708"
     inkscape:window-x="0"
     inkscape:window-y="27"
     inkscape:window-maximized="1"
     inkscape:current-layer="svg5722" />
  <!--! Font Awesome Pro 6.4.2 by @fontawesome - https://fontawesome.com License - https://fontawesome.com/license (Commercial License) Copyright 2023 Fonticons, Inc. -->
  <path
     d="M 250,190.46875 A 59.53125,59.53125 0 1 0 309.55357,250 59.575893,59.575893 0 0 0 250,190.46875 Z M 389.18527,144.70982 A 60.267857,60.267857 0 0 0 355.24554,110.77009 C 331.80804,101.51786 276.00446,103.59375 250,103.59375 c -26.00446,0 -81.75223,-2.15402 -105.2567,7.17634 a 60.267857,60.267857 0 0 0 -33.93973,33.93973 c -9.24107,23.4375 -7.17634,79.29688 -7.17634,105.27902 0,25.98214 -2.06473,81.77455 7.22098,105.29018 a 60.267857,60.267857 0 0 0 33.93974,33.93973 c 23.4375,9.25223 79.24107,7.17634 105.25669,7.17634 26.01563,0 81.74107,2.15402 105.24554,-7.17634 a 60.267857,60.267857 0 0 0 33.93973,-33.93973 c 9.3192,-23.4375 7.17634,-79.29688 7.17634,-105.27902 0,-25.98214 2.14286,-81.76339 -7.17634,-105.27902 z M 250,341.51786 A 91.517857,91.517857 0 1 1 341.51786,250 91.40625,91.40625 0 0 1 250,341.51786 Z m 95.29018,-165.5134 a 21.361607,21.361607 0 1 1 21.35044,-21.3616 21.316964,21.316964 0 0 1 -21.3058,21.40625 z M 446.42857,0 H 53.571429 A 53.571429,53.571429 0 0 0 0,53.571429 V 446.42857 A 53.571429,53.571429 0 0 0 53.571429,500 H 446.42857 A 53.571429,53.571429 0 0 0 500,446.42857 V 53.571429 A 53.571429,53.571429 0 0 0 446.42857,0 Z m -19.10714,323.66071 c -1.43973,28.60491 -7.96875,53.9509 -28.85045,74.77679 -20.88169,20.82589 -46.20536,27.48884 -74.77678,28.85045 -29.47545,1.66294 -117.84599,1.66294 -147.32143,0 -28.60491,-1.43974 -53.86161,-7.97991 -74.77679,-28.85045 -20.915176,-20.87054 -27.488837,-46.22768 -28.850444,-74.77679 -1.662947,-29.4866 -1.662947,-117.8683 0,-147.32142 1.439732,-28.60492 7.890625,-53.9509 28.850444,-74.77679 20.95982,-20.82589 46.28348,-27.41071 74.77679,-28.77232 29.47544,-1.66295 117.84598,-1.66295 147.32143,0 28.60491,1.43973 53.93973,7.97991 74.77678,28.85044 20.83706,20.87054 27.48884,46.22768 28.85045,74.83259 1.66294,29.375 1.66294,117.67858 0,147.1875 z"
     id="path5720"
     style="stroke-width:1.11607;fill:#ff3f8f;fill-opacity:1" />
  <path
     style="fill:#ffffff;fill-opacity:1;stroke-width:2.34619;stop-color:#000000"
     d="M 176.77458,426.71504 C 143.7466,424.72122 122.81523,417.00764 104.93504,400.24093 87.852983,384.22264 79.133583,366.93148 74.83687,340.5542 73.374265,331.57536 73.020226,319.38773 72.612478,263.98064 71.865204,162.43697 73.681505,145.22775 87.739043,120.65834 101.63485,96.371601 126.28646,80.328978 157.40508,75.321493 c 28.4916,-4.584754 160.049,-4.508022 186.31788,0.10867 21.82701,3.836044 37.78204,11.491621 51.94512,24.924427 16.26486,15.4262 25.01087,32.4847 29.20536,56.96308 2.57951,15.05357 3.97662,86.18184 2.63819,134.31292 -1.24727,44.85281 -2.10465,53.34512 -6.93189,68.66026 -10.7176,34.00322 -37.66571,57.07903 -74.72726,63.98935 -4.55474,0.84926 -16.13064,1.99645 -25.72422,2.54933 -20.61277,1.1879 -123.13581,1.10602 -143.35368,-0.11449 z m 141.30157,-30.70881 c 31.09077,-2.10936 44.60058,-6.82622 57.94429,-20.23081 19.17321,-19.2607 21.47349,-34.74876 20.94411,-141.01971 -0.31549,-63.33239 -1.89523,-78.91873 -9.59824,-94.6996 -6.94376,-14.22545 -18.50803,-24.84072 -32.65597,-29.97615 -16.77997,-6.0908 -48.8799,-7.96074 -122.30954,-7.12498 -28.4986,0.32437 -55.74028,1.07404 -60.53707,1.66593 -21.74931,2.68374 -33.34947,6.81503 -44.29652,15.77583 -7.38611,6.04595 -15.60559,18.25818 -18.29011,27.17483 -4.94907,16.43839 -5.40562,23.48691 -5.89343,90.98554 -0.61801,85.51391 0.89957,104.93068 9.57323,122.48507 7.1985,14.56886 22.32844,26.67643 38.48963,30.80091 7.17775,1.83183 23.33489,3.88795 35.80798,4.55684 15.38173,0.82488 117.38516,0.51789 130.82164,-0.3937 z"
     id="path6572" />
  <path
     style="fill:#ffffff;fill-opacity:1;stroke-width:2.34619;stop-color:#000000"
     d="m 231.88778,339.14871 c -42.63626,-9.82288 -72.50769,-46.18159 -72.50769,-88.25445 0,-25.83819 8.74807,-47.15916 26.79261,-65.2995 24.86729,-24.99931 63.41953,-33.17402 96.283,-20.41606 36.38822,14.12631 60.8991,51.94003 58.2973,89.93709 -2.66103,38.86222 -29.02746,71.66955 -66.29654,82.49177 -9.84307,2.85823 -33.18401,3.70327 -42.56868,1.54115 z m 32.06779,-30.82417 c 16.50005,-3.89031 32.26497,-16.3483 39.63257,-31.31903 14.67448,-29.81807 2.90837,-65.66513 -26.40693,-80.45236 -32.53319,-16.41039 -71.34124,-0.75736 -83.96075,33.86516 -3.07759,8.44357 -3.73913,25.11592 -1.36112,34.30313 5.48776,21.20142 22.23365,37.91259 43.61962,43.52916 7.37927,1.938 20.42686,1.97189 28.47661,0.074 z"
     id="path6574" />
  <path
     style="fill:#ffffff;fill-opacity:1;stroke-width:2.34619;stop-color:#000000"
     d="m 336.21968,172.83447 c -7.18712,-3.63863 -10.69633,-8.8673 -11.26951,-16.79142 -0.51486,-7.11788 1.9088,-12.65753 7.58477,-17.33614 17.02035,-14.02962 41.19619,5.98808 30.86524,25.55656 -5.39347,10.2161 -16.81624,13.81812 -27.1805,8.571 z"
     id="path6576" />
</svg>
