<?xml version="1.0" encoding="UTF-8" standalone="no"?>
<svg
   viewBox="0 0 500 500"
   version="1.1"
   id="svg2275"
   sodipodi:docname="linkedin.svg"
   width="500"
   height="500"
   inkscape:version="1.2.2 (732a01da63, 2022-12-09, custom)"
   xmlns:inkscape="http://www.inkscape.org/namespaces/inkscape"
   xmlns:sodipodi="http://sodipodi.sourceforge.net/DTD/sodipodi-0.dtd"
   xmlns="http://www.w3.org/2000/svg"
   xmlns:svg="http://www.w3.org/2000/svg">
  <defs
     id="defs2279" />
  <sodipodi:namedview
     id="namedview2277"
     pagecolor="#ffffff"
     bordercolor="#000000"
     borderopacity="0.25"
     inkscape:showpageshadow="2"
     inkscape:pageopacity="0.0"
     inkscape:pagecheckerboard="0"
     inkscape:deskcolor="#d1d1d1"
     showgrid="false"
     inkscape:zoom="0.97460938"
     inkscape:cx="214.95792"
     inkscape:cy="256"
     inkscape:window-width="1366"
     inkscape:window-height="708"
     inkscape:window-x="0"
     inkscape:window-y="27"
     inkscape:window-maximized="1"
     inkscape:current-layer="svg2275" />
  <!--! Font Awesome Pro 6.4.2 by @fontawesome - https://fontawesome.com License - https://fontawesome.com/license (Commercial License) Copyright 2023 Fonticons, Inc. -->
  <path
     d="M 464.28571,0 H 35.602679 C 15.959821,0 0,16.183036 0,36.049107 V 463.95089 C 0,483.81696 15.959821,500 35.602679,500 H 464.28571 C 483.92857,500 500,483.81696 500,463.95089 V 36.049107 C 500,16.183036 483.92857,0 464.28571,0 Z M 151.11607,428.57143 H 77.008929 V 189.95536 H 151.22768 V 428.57143 Z M 114.0625,157.36607 c -23.772321,0 -42.96875,-19.30803 -42.96875,-42.96875 0,-23.66071 19.196429,-42.96875 42.96875,-42.96875 23.66071,0 42.96875,19.30804 42.96875,42.96875 0,23.77232 -19.19643,42.96875 -42.96875,42.96875 z M 428.90625,428.57143 H 354.79911 V 312.5 c 0,-27.67857 -0.55804,-63.28125 -38.50447,-63.28125 -38.61607,0 -44.53125,30.13393 -44.53125,61.27232 V 428.57143 H 197.65625 V 189.95536 H 268.75 v 32.58928 h 1.00446 c 9.93304,-18.75 34.15179,-38.50446 70.2009,-38.50446 75,0 88.95089,49.44196 88.95089,113.72768 z"
     id="path2273"
     style="stroke-width:1.11607" />
  <path
     style="fill:#ffffff;fill-opacity:1;stroke-width:2.34619;stop-color:#000000"
     d="M 77.466934,309.35471 V 190.84569 h 36.424846 36.42485 V 309.35471 427.86373 H 113.89178 77.466934 Z"
     id="path3537" />
  <path
     style="fill:#ffffff;fill-opacity:1;stroke-width:2.34619;stop-color:#000000"
     d="M 198.54108,309.35471 V 190.84569 h 34.88577 34.88578 v 15.90381 c 0,8.74709 0.38497,15.90381 0.8555,15.90381 0.47053,0 2.60893,-2.54589 4.752,-5.65754 10.77597,-15.64623 28.28773,-26.47021 49.91528,-30.85251 12.02005,-2.43557 32.50355,-1.54862 46.30129,2.00488 26.54681,6.83692 43.49288,23.75516 51.57036,51.48566 5.80328,19.92305 5.87212,21.09116 6.36135,107.94135 l 0.45227,80.28858 h -36.42751 -36.42752 l -0.41361,-70.54108 c -0.4414,-75.27719 -0.56771,-77.23675 -5.73127,-88.90984 -2.65164,-5.99446 -9.50839,-13.33593 -14.85489,-15.90499 -10.90381,-5.23942 -28.52876,-4.82678 -40.33502,0.94434 -10.25985,5.01521 -16.10625,13.04169 -20.53993,28.19914 -1.62245,5.54667 -1.83565,13.09109 -2.15294,76.18437 l -0.35217,70.02806 h -36.37237 -36.37237 z"
     id="path3539" />
  <path
     style="fill:#ffffff;fill-opacity:1;stroke-width:2.34619;stop-color:#000000"
     d="M 104.65731,155.62692 C 87.74325,151.29503 75.406591,138.0465 72.229126,120.80177 67.285312,93.97073 93.179846,67.946912 120.21371,72.577615 c 12.43425,2.129898 22.47772,8.655314 29.10614,18.910758 14.82254,22.933357 4.82346,52.872567 -20.92601,62.656597 -6.60967,2.51147 -17.14778,3.1694 -23.73653,1.48195 z"
     id="path3541" />
  <path
     style="fill:#ff3f8f;fill-opacity:1;stroke-width:2.34619;stop-color:#000000"
     d="M 27.117889,498.29032 C 16.61057,495.44395 8.5402519,488.51743 3.6949296,478.1871 L 1.0260521,472.49699 V 249.84369 27.190381 L 3.9178543,21.301427 C 9.4911831,9.9517286 19.364497,2.7334852 31.772197,0.93749991 40.07867,-0.26484263 459.85188,-0.22938754 468.17595,0.9743596 480.31559,2.7298773 489.35358,8.9970858 495.14213,19.67351 l 3.51919,6.490819 V 249.84369 473.52305 l -3.01215,5.94473 c -3.66917,7.24139 -10.07332,13.33493 -17.8422,16.97685 l -5.823,2.72972 -220.08818,0.19319 C 79.659632,499.51873 30.787966,499.28453 27.117889,498.29032 Z M 151.34269,309.35471 V 189.81964 H 113.89178 76.440882 v 119.53507 119.53507 h 37.450898 37.45091 z m 121.34295,49.50701 c 0.32837,-61.52373 0.58281,-70.80812 2.09513,-76.45142 3.79617,-14.16556 11.73913,-24.685 21.94097,-29.05802 11.38692,-4.88101 27.20122,-4.62076 37.92121,0.62405 8.39187,4.10576 13.20938,11.15017 17.0375,24.91313 2.12661,7.64566 2.20708,10.11088 2.57674,78.94621 l 0.38158,71.05411 h 37.4536 37.4536 l -0.45144,-80.8016 c -0.38409,-68.74836 -0.70213,-82.25565 -2.132,-90.5491 -5.05986,-29.34785 -14.44659,-47.15896 -31.17539,-59.15458 -13.13882,-9.42139 -27.32885,-13.50033 -50.00758,-14.37474 -11.99717,-0.46257 -16.03307,-0.20805 -24.48706,1.54423 -20.75276,4.3015 -39.09315,16.19585 -48.95778,31.75075 l -2.99604,4.72428 v -16.10469 -16.10469 h -35.91183 -35.91182 v 119.53507 119.53507 h 37.39842 37.39842 z M 129.05381,155.10094 c 15.96912,-5.6127 26.83049,-20.12451 28.15515,-37.61797 C 158.9277,94.785523 143.63486,75.568237 120.72789,71.640127 97.67917,67.68771 75.329459,83.905642 71.169387,107.60195 c -3.753992,21.38322 10.252878,42.72912 32.056203,48.85233 7.05931,1.98253 17.96252,1.41122 25.82822,-1.35334 z"
     id="path3973" />
</svg>
