<?xml version="1.0" encoding="UTF-8" standalone="no"?>
<svg
   width="500"
   height="500"
   viewBox="0 0 500 500"
   fill="none"
   version="1.1"
   id="svg3586"
   sodipodi:docname="bxs-phone-call.svg.svg"
   inkscape:version="1.2.2 (732a01da63, 2022-12-09, custom)"
   xmlns:inkscape="http://www.inkscape.org/namespaces/inkscape"
   xmlns:sodipodi="http://sodipodi.sourceforge.net/DTD/sodipodi-0.dtd"
   xmlns="http://www.w3.org/2000/svg"
   xmlns:svg="http://www.w3.org/2000/svg">
  <defs
     id="defs3590" />
  <sodipodi:namedview
     id="namedview3588"
     pagecolor="#ffffff"
     bordercolor="#000000"
     borderopacity="0.25"
     inkscape:showpageshadow="2"
     inkscape:pageopacity="0.0"
     inkscape:pagecheckerboard="0"
     inkscape:deskcolor="#d1d1d1"
     showgrid="false"
     inkscape:zoom="1.6390735"
     inkscape:cx="260.20797"
     inkscape:cy="269.05444"
     inkscape:window-width="1920"
     inkscape:window-height="1047"
     inkscape:window-x="1366"
     inkscape:window-y="0"
     inkscape:window-maximized="1"
     inkscape:current-layer="svg3586" />
  <g
     id="g3594"
     transform="matrix(26.314831,0,0,26.314831,-92.088962,-65.777972)">
    <path
       d="m 20.5002,11.499 h 2 c 0,-5.13 -3.873,-8.999 -9.01,-8.999 v 2 c 4.062,0 7.01,2.943 7.01,6.999 z"
       fill="#ff3f8f"
       id="path3582" />
    <path
       d="m 13.4998,8.49999 c 2.103,0 3,0.897 3,3.00001 h 2 c 0,-3.22501 -1.775,-5.00001 -5,-5.00001 z m 3.422,5.44301 c -0.1922,-0.1747 -0.4447,-0.2678 -0.7042,-0.2598 -0.2595,0.008 -0.5058,0.1166 -0.6868,0.3028 l -2.393,2.461 c -0.576,-0.11 -1.734,-0.471 -2.926,-1.66 C 9.01979,13.594 8.65879,12.433 8.55179,11.861 L 11.0108,9.46699 C 11.1972,9.28612 11.3059,9.03982 11.314,8.7802 11.322,8.52059 11.2287,8.26804 11.0538,8.07599 L 7.35879,4.01299 C 7.18384,3.82035 6.94067,3.7035 6.68095,3.68725 6.42122,3.67101 6.16539,3.75665 5.96779,3.92599 l -2.17,1.861 c -0.17289,0.17352 -0.27608,0.40446 -0.29,0.649 -0.015,0.25 -0.301,6.17201 4.291,10.76601 4.00601,4.005 9.02401,4.298 10.40601,4.298 0.202,0 0.326,-0.006 0.359,-0.008 0.2445,-0.0137 0.4753,-0.1173 0.648,-0.291 l 1.86,-2.171 c 0.1695,-0.1975 0.2553,-0.4532 0.2392,-0.713 -0.016,-0.2597 -0.1327,-0.5029 -0.3252,-0.678 z"
       fill="#ff3f8f"
       id="path3584" />
  </g>
</svg>
