<?xml version="1.0" encoding="UTF-8" standalone="no"?>
<svg
   viewBox="0 0 500 500"
   version="1.1"
   id="svg12659"
   sodipodi:docname="square-x-twitter.svg"
   width="500"
   height="500"
   inkscape:version="1.2.2 (732a01da63, 2022-12-09, custom)"
   xmlns:inkscape="http://www.inkscape.org/namespaces/inkscape"
   xmlns:sodipodi="http://sodipodi.sourceforge.net/DTD/sodipodi-0.dtd"
   xmlns="http://www.w3.org/2000/svg"
   xmlns:svg="http://www.w3.org/2000/svg">
  <defs
     id="defs12663" />
  <sodipodi:namedview
     id="namedview12661"
     pagecolor="#ffffff"
     bordercolor="#000000"
     borderopacity="0.25"
     inkscape:showpageshadow="2"
     inkscape:pageopacity="0.0"
     inkscape:pagecheckerboard="0"
     inkscape:deskcolor="#d1d1d1"
     showgrid="false"
     inkscape:zoom="0.97460938"
     inkscape:cx="224.19238"
     inkscape:cy="256"
     inkscape:window-width="1366"
     inkscape:window-height="708"
     inkscape:window-x="0"
     inkscape:window-y="27"
     inkscape:window-maximized="1"
     inkscape:current-layer="svg12659" />
  <!--! Font Awesome Pro 6.4.2 by @fontawesome - https://fontawesome.com License - https://fontawesome.com/license (Commercial License) Copyright 2023 Fonticons, Inc. -->
  <path
     d="M 71.428571,0 C 32.03125,0 0,32.03125 0,71.42857 V 428.57143 C 0,467.96875 32.03125,500 71.428571,500 H 428.57143 C 467.96875,500 500,467.96875 500,428.57143 V 71.42857 C 500,32.03125 467.96875,0 428.57143,0 Z M 403.01339,93.75 287.16518,226.11607 423.4375,406.25 H 316.74107 L 233.25893,296.98661 137.61161,406.25 H 84.598214 L 208.48214,264.62054 77.790179,93.75 H 187.16518 L 262.72321,193.63839 350,93.75 Z M 360.82589,374.55357 171.20536,123.77232 h -31.58482 l 191.74107,250.78125 h 29.35268 z"
     id="path12657"
     style="stroke-width:1.11607" />
  <path
     style="fill:#ffffff;fill-opacity:1;stroke-width:2.34619;stop-color:#000000"
     d="M 87.963229,403.49499 C 150.5792,332.32951 208.71786,264.95712 208.34724,263.99128 208.07838,263.29065 180.2311,226.57672 146.46441,182.40479 112.69771,138.23286 83.766551,100.36072 82.172944,98.244489 l -2.897468,-3.847695 h 53.806314 53.80632 l 37.37759,49.422786 c 20.55767,27.18254 37.83931,49.54634 38.40364,49.69734 0.56433,0.151 20.41844,-22.05576 44.12024,-49.34836 l 43.09419,-49.622909 25.39479,-0.07443 c 13.96713,-0.04094 25.39479,0.162093 25.39479,0.451175 0,0.289082 -25.62565,29.802684 -56.9459,65.585774 -31.32024,35.7831 -56.94589,65.30709 -56.94589,65.60889 0,0.30181 30.24289,40.52381 67.20642,89.38224 36.96352,48.85844 67.20641,89.04901 67.20641,89.3124 0,0.26339 -23.48194,0.47888 -52.18209,0.47888 h -52.18207 l -41.44518,-54.34103 c -22.79485,-29.88758 -41.70988,-54.35892 -42.03342,-54.38076 -0.32352,-0.0219 -21.99068,24.43161 -48.14923,54.34103 l -47.56099,54.38076 h -25.62903 c -24.326421,0 -25.54873,-0.0912 -24.049151,-1.79559 z m 273.549121,-28.7996 c -0.1881,-0.46183 -43.01027,-57.25381 -95.16039,-126.20441 L 171.53359,123.12625 h -16.33727 c -8.9855,0 -16.18336,0.37085 -15.99525,0.82411 0.18811,0.45325 43.48345,57.24524 96.21188,126.20441 l 95.86988,125.3803 h 15.28577 c 8.40718,0 15.13187,-0.37785 14.94375,-0.83968 z"
     id="path12665" />
  <path
     style="fill:#ff3f8f;fill-opacity:1;stroke-width:2.34619;stop-color:#000000"
     d="m 63.61523,499.04523 c -1.128657,-0.22226 -4.591583,-0.90984 -7.69539,-1.52796 C 29.247465,492.20555 6.3342621,468.0211 1.5701545,440.15223 0.76031702,435.41488 0.51913783,379.59827 0.73011231,245.73948 1.0129296,66.29789 1.1101081,57.72171 2.9216926,52.328657 9.3728721,33.123614 23.314068,16.402446 39.503006,8.4527715 57.058086,-0.16775601 38.978739,0.51302605 250.35671,0.51302605 h 187.76754 l 8.16217,2.36316385 c 20.83877,6.0333696 36.64474,19.0504041 45.72011,37.6528681 7.66072,15.702763 7.13578,0.333904 7.15265,209.407012 0.0148,183.63842 -0.0303,188.0377 -2.00821,195.77124 -6.84817,26.7761 -28.75489,47.27015 -56.12659,52.50722 -6.52534,1.2485 -35.69897,1.45471 -191.52747,1.35382 -101.10627,-0.0655 -184.753022,-0.30087 -185.88168,-0.52312 z M 185.62691,352.42377 c 25.91044,-29.61343 47.38058,-53.8217 47.71143,-53.79613 0.33085,0.0256 19.06597,24.26604 41.63361,53.86774 l 41.03206,53.82125 h 54.22049 54.22048 l -3.00714,-3.84769 C 419.05215,399.4164 330.08979,281.83613 295.41809,235.91043 l -7.42046,-9.82904 57.42636,-65.5283 c 31.5845,-36.04057 57.65637,-65.900463 57.93749,-66.355325 0.28113,-0.454863 -11.73263,-0.827024 -26.69723,-0.827024 h -27.20836 l -43.3344,49.638769 -43.33442,49.63877 -23.00921,-30.40029 c -12.65507,-16.72017 -29.53447,-39.05612 -37.50977,-49.63547 l -14.50055,-19.235166 -55.15031,-0.0033 c -30.33266,-0.0018 -55.150296,0.223914 -55.150296,0.501626 0,0.431463 105.025036,138.13571 123.747516,162.25236 l 6.47183,8.33645 -61.51849,70.38794 c -33.83517,38.71338 -61.518491,70.63011 -61.518491,70.92609 0,0.29596 12.12024,0.52682 26.933871,0.513 l 26.93386,-0.0251 47.10988,-53.84262 z"
     id="path12667" />
  <path
     style="fill:#ff3f8f;fill-opacity:1;stroke-width:2.34619;stop-color:#000000"
     d="M 237.47103,250.61323 C 185.41002,182.47054 142.3683,126.14028 141.82277,125.43487 c -0.78321,-1.01274 2.15141,-1.28257 13.94937,-1.28257 h 14.94125 l 93.59658,123.8958 c 51.47812,68.14268 94.04117,124.47294 94.58457,125.17835 0.77921,1.01154 -1.94463,1.28257 -12.88958,1.28257 H 332.1274 Z"
     id="path12669" />
</svg>
