<?xml version="1.0" encoding="UTF-8" standalone="no"?>
<svg
   viewBox="0 0 500 500"
   version="1.1"
   id="svg7336"
   sodipodi:docname="youtube.svg"
   width="500"
   height="500"
   inkscape:version="1.2.2 (732a01da63, 2022-12-09, custom)"
   xmlns:inkscape="http://www.inkscape.org/namespaces/inkscape"
   xmlns:sodipodi="http://sodipodi.sourceforge.net/DTD/sodipodi-0.dtd"
   xmlns="http://www.w3.org/2000/svg"
   xmlns:svg="http://www.w3.org/2000/svg">
  <defs
     id="defs7340" />
  <sodipodi:namedview
     id="namedview7338"
     pagecolor="#ffffff"
     bordercolor="#000000"
     borderopacity="0.25"
     inkscape:showpageshadow="2"
     inkscape:pageopacity="0.0"
     inkscape:pagecheckerboard="0"
     inkscape:deskcolor="#d1d1d1"
     showgrid="false"
     inkscape:zoom="0.97460938"
     inkscape:cx="224.19238"
     inkscape:cy="256"
     inkscape:window-width="1366"
     inkscape:window-height="708"
     inkscape:window-x="0"
     inkscape:window-y="27"
     inkscape:window-maximized="1"
     inkscape:current-layer="svg7336" />
  <!--! Font Awesome Pro 6.4.2 by @fontawesome - https://fontawesome.com License - https://fontawesome.com/license (Commercial License) Copyright 2023 Fonticons, Inc. -->
  <path
     d="m 208.48214,189.84375 106.25,60.37946 -106.25,60.37947 z M 500,53.571429 V 446.42857 C 500,476.00446 476.00446,500 446.42857,500 H 53.571429 C 23.995536,500 0,476.00446 0,446.42857 V 53.571429 C 0,23.995536 23.995536,0 53.571429,0 H 446.42857 C 476.00446,0 500,23.995536 500,53.571429 Z M 453.125,250.33482 c 0,0 0,-66.51786 -8.48214,-98.4375 -4.6875,-17.63393 -18.41518,-31.47321 -35.9375,-36.16071 C 377.12054,107.14286 250,107.14286 250,107.14286 c 0,0 -127.12054,0 -158.705357,8.59375 -17.522322,4.6875 -31.25,18.52678 -35.9375,36.16071 -8.482143,31.80804 -8.482143,98.4375 -8.482143,98.4375 0,0 0,66.51786 8.482143,98.4375 4.6875,17.63393 18.415178,30.91518 35.9375,35.60268 C 122.87946,392.85714 250,392.85714 250,392.85714 c 0,0 127.12054,0 158.70536,-8.59375 17.52232,-4.6875 31.25,-17.96875 35.9375,-35.60268 8.48214,-31.80803 8.48214,-98.32589 8.48214,-98.32589 z"
     id="path7334"
     style="stroke-width:1.11607" />
  <path
     style="fill:#ff3f8f;fill-opacity:1;stroke-width:2.34619;stop-color:#000000"
     d="M 40.69456,497.60201 C 20.735147,492.37384 5.3009957,475.99408 1.569799,456.08016 0.73377152,451.61817 0.50021856,393.87019 0.72118288,246.25251 L 1.0260521,42.581162 3.3641875,36.42485 C 9.6939925,19.758467 22.665234,7.7168001 40.016032,2.3996333 45.904406,0.59513618 55.058986,0.51302605 250.35671,0.51302605 c 187.47306,0 204.61519,0.13944572 209.44827,1.70379405 14.93679,4.8346807 26.54538,14.0311959 32.92454,26.0833469 6.90297,13.041812 6.44609,-2.7272 6.43265,222.015603 -0.0132,222.04101 0.35422,208.13471 -5.82685,220.49151 -4.35121,8.69867 -14.63854,18.59656 -23.91648,23.0111 -4.23247,2.01384 -10.43511,4.15822 -13.78364,4.76527 -4.21635,0.76438 -67.78336,1.08635 -206.7495,1.04723 C 54.321668,499.5761 47.995649,499.51445 40.69456,497.60201 Z M 351.93587,391.00065 c 41.97285,-2.6096 55.24273,-4.6617 66.83072,-10.33492 9.99488,-4.89327 18.65095,-13.55021 23.06377,-23.06605 15.31858,-33.03318 15.36541,-181.87528 0.0674,-214.35723 -6.22571,-13.21898 -17.34134,-23.17482 -30.36611,-27.19776 -37.36339,-11.54039 -264.85176,-12.62541 -316.62184,-1.51016 -19.844421,4.26067 -34.795963,18.15158 -39.86731,37.0392 -5.788492,21.55853 -7.857314,48.23274 -7.780868,100.32206 0.07796,53.12332 2.599139,82.05405 8.738898,100.27963 5.656902,16.79226 19.417523,28.98082 37.436625,33.15973 12.415725,2.87939 42.032595,5.22397 88.687085,7.02078 19.07053,0.73446 153.45013,-0.33803 169.81162,-1.35528 z"
     id="path8068" />
  <path
     style="fill:#ff3f8f;fill-opacity:1;stroke-width:2.34619;stop-color:#000000"
     d="m 208.8016,250.17624 v -59.53325 l 3.33467,1.95811 c 1.83407,1.07696 25.1511,14.33756 51.81563,29.468 26.66453,15.13044 48.47993,27.80031 48.47866,28.15526 -0.001,0.35496 -9.1203,5.81293 -20.26453,12.12883 -11.14422,6.3159 -34.46022,19.55484 -51.81332,29.41987 l -31.55111,17.93642 z"
     id="path8070" />
  <path
     style="fill:#ffffff;fill-opacity:1;stroke-width:2.34619;stop-color:#000000"
     d="M 168.27255,390.84251 C 126.96137,389.24863 98.926737,386.39405 88.141181,382.68327 73.34377,377.59221 61.234372,365.19845 56.595511,350.39679 50.70367,331.59714 48.287615,302.72998 48.26553,250.86974 48.23792,186.03873 52.198853,153.70197 62.070346,138.1682 c 7.266204,-11.4341 19.583077,-19.82978 33.3525,-22.73443 42.807764,-9.03027 230.067224,-10.30981 296.145504,-2.02356 6.56098,0.82275 14.90531,2.41518 18.54294,3.53873 15.31891,4.73153 27.54103,16.52368 32.71604,31.5651 9.21541,26.78507 12.47578,110.51421 6.52208,167.49257 -3.84077,36.75699 -9.82815,50.24413 -27.36002,61.6309 -12.65194,8.21732 -34.45363,11.16536 -98.26995,13.28813 -34.47621,1.14679 -124.82098,1.09849 -155.44689,-0.0831 z m 93.75167,-109.86146 c 28.00692,-15.87058 51.4768,-29.369 52.15528,-29.99649 0.92715,-0.85746 -11.77418,-8.53284 -51.12775,-30.89638 -28.79875,-16.36553 -53.0172,-29.9048 -53.81878,-30.08726 -1.24651,-0.28374 -1.45742,8.45558 -1.45742,60.39033 0,55.57213 0.14108,60.66795 1.6635,60.08374 0.91492,-0.35108 24.57825,-13.62336 52.58517,-29.49394 z"
     id="path8072" />
</svg>
